<svg width="26" height="28" viewBox="0 0 26 28" fill="none" xmlns="http://www.w3.org/2000/svg">
<path d="M19.4859 12.1391C19.4859 15.927 16.5822 18.9977 13.0004 18.9977C9.4185 18.9977 6.51481 15.927 6.51481 12.1391C6.51481 11.0718 6.75205 10.0655 7.163 9.16504H0V25.204C0 26.6742 1.1375 27.8771 2.52778 27.8771H23.4722C24.8625 27.8771 26 26.6742 26 25.204V9.16504H18.8374C19.2487 10.0655 19.4859 11.0718 19.4859 12.1391Z" fill="black"/>
<path d="M23.4722 0H2.52778C1.1375 0 0 1.20292 0 2.67316V8.01947H7.82347C9.00719 6.35867 10.8821 5.28063 13 5.28063C15.1179 5.28063 16.9928 6.35867 18.1765 8.01947H26V2.67316C26 1.20292 24.8625 0 23.4722 0ZM2.07856 6.76538H1.1375V2.9103C1.1375 2.2359 1.52606 1.65812 2.07892 1.41257V6.76538H2.07856ZM3.6205 6.76538H2.72892V1.28617H3.6205V6.76538ZM5.16208 6.76538H4.2705V1.28617H5.16208V6.76538ZM6.70258 2.9103V5.14124V6.76538H5.81208V1.28617H6.70258V2.9103ZM24.6823 5.14124C24.6823 6.03866 23.9947 6.76538 23.1472 6.76538H20.6523C19.8044 6.76538 19.1169 6.03866 19.1169 5.14124V2.9103C19.1169 2.01289 19.8044 1.28617 20.6523 1.28617H23.1472C23.9951 1.28617 24.6823 2.01289 24.6823 2.9103V5.14124Z" fill="black"/>
<path d="M13.0003 18.1958C16.155 18.1958 18.7124 15.4902 18.7124 12.1549C18.7124 8.81914 16.1554 6.11353 13.0003 6.11353C9.84496 6.11353 7.28757 8.81914 7.28757 12.1549C7.28757 15.4898 9.84496 18.1958 13.0003 18.1958ZM13 7.34165C15.5133 7.34165 17.5514 9.49659 17.5514 12.1549C17.5514 14.8127 15.5137 16.9681 13 16.9681C10.4863 16.9681 8.44854 14.8131 8.44854 12.1549C8.4489 9.49621 10.4867 7.34165 13 7.34165Z" fill="black"/>
</svg>
