<svg width="26" height="28" viewBox="0 0 26 28" fill="none" xmlns="http://www.w3.org/2000/svg">
<path d="M24.5649 0H1.43506C0.642417 0 0 0.688827 0 1.53873V26.34C0 27.1895 0.642417 27.8783 1.43506 27.8783H13.8872V17.0824H10.4989V12.8751H13.8872V9.77212C13.8872 6.17117 15.9384 4.21079 18.9341 4.21079C20.3692 4.21079 21.6024 4.32501 21.9621 4.37651V8.13969L19.8842 8.14085C18.2549 8.14085 17.9396 8.97101 17.9396 10.1891V12.8755H21.8252L21.3193 17.0828H17.9396V27.8783H24.5653C25.3576 27.8783 26 27.1895 26 26.3396V1.53873C26 0.688827 25.3576 0 24.5649 0Z" fill="black"/>
</svg>
