<svg width="26" height="28" viewBox="0 0 26 28" fill="none" xmlns="http://www.w3.org/2000/svg">
<path d="M24.0742 0H1.91931C0.859806 0 0 0.900237 0 2.00879V25.8668C0 26.9769 0.859806 27.8783 1.91931 27.8783H24.0742C25.1344 27.8783 26 26.9769 26 25.8668V2.00879C26 0.900237 25.1344 0 24.0742 0ZM7.71117 23.7562H3.85306V10.4524H7.71117V23.7562ZM5.78211 8.63337C4.54603 8.63337 3.54683 7.55928 3.54683 6.23506C3.54683 4.91278 4.54603 3.83869 5.78211 3.83869C7.01531 3.83869 8.01703 4.91278 8.01703 6.23506C8.01703 7.55928 7.01531 8.63337 5.78211 8.63337ZM22.1542 23.7562H18.3022V17.2869C18.3022 15.7435 18.274 13.7591 16.2977 13.7591C14.2906 13.7591 13.9847 15.4399 13.9847 17.175V23.7566H10.1299V10.4524H13.8295V12.2692H13.8822C14.3971 11.2237 15.6552 10.1206 17.5316 10.1206C21.4338 10.1206 22.1545 12.8751 22.1545 16.4587V23.7562H22.1542Z" fill="black"/>
</svg>
